//Event file generated from Sappy .s format.
	#include "MPlayDef.event"

	#define	CombatMission_grp  voicegroup000
	#define	CombatMission_pri  0
	#define	CombatMission_rev  0
	#define	CombatMission_mvl  127
	#define	CombatMission_key  0
	#define	CombatMission_tbs  1
	#define	CombatMission_exg  0
	#define	CombatMission_cmp  1

	// .rodata
	//	CombatMission
	ALIGN 4


//**************** Track 1 (Midi-Chn.0) ****************//

CombatMission_001:
// 000   ----------------------------------------
 BYTE   KEYSH   CombatMission_key+0
Label_0_01082272:
 BYTE   TEMPO   58*CombatMission_tbs/2
 BYTE   VOICE   85
 BYTE   VOL   35*CombatMission_mvl/mxv
 BYTE   PAN   c_v-25
 BYTE   N01  Gn4  v104
 BYTE   W03
 BYTE   N01
 BYTE   W03
 BYTE   N01
 BYTE   W03
 BYTE   N01
 BYTE   W03
 BYTE   N01
 BYTE   W03
 BYTE   N01
 BYTE   W03
 BYTE   N01
 BYTE   W03
 BYTE   N01
 BYTE   W03
 BYTE   N01
 BYTE   W03
 BYTE   N01
 BYTE   W03
 BYTE   N01
 BYTE   W03
 BYTE   N01
 BYTE   W03
 BYTE   N01
 BYTE   W03
 BYTE   N01
 BYTE   W03
 BYTE   N01
 BYTE   W03
 BYTE   N01
 BYTE   W03
 BYTE   N01
 BYTE   W03
 BYTE   N01
 BYTE   W03
 BYTE   N01
 BYTE   W03
 BYTE   N01
 BYTE   W03
 BYTE   N01
 BYTE   W03
 BYTE   N01
 BYTE   W03
 BYTE   N01
 BYTE   W03
 BYTE   N01
 BYTE   W03
 BYTE   N01
 BYTE   W03
 BYTE   N01
 BYTE   W03
 BYTE   N01
 BYTE   W03
 BYTE   N01
 BYTE   W03
 BYTE   N01
 BYTE   W03
 BYTE   N01
 BYTE   W03
 BYTE   N01
 BYTE   W03
 BYTE   N01
 BYTE   W03
// 001   ----------------------------------------
Label_0_010822BC:
 BYTE   N01  Gn4  v104
 BYTE   W03
 BYTE   N01
 BYTE   W03
 BYTE   N01
 BYTE   W03
 BYTE   N01
 BYTE   W03
 BYTE   N01
 BYTE   W03
 BYTE   N01
 BYTE   W03
 BYTE   N01
 BYTE   W03
 BYTE   N01
 BYTE   W03
 BYTE   N01
 BYTE   W03
 BYTE   N01
 BYTE   W03
 BYTE   N01
 BYTE   W03
 BYTE   N01
 BYTE   W03
 BYTE   N01
 BYTE   W03
 BYTE   N01
 BYTE   W03
 BYTE   N01
 BYTE   W03
 BYTE   N01
 BYTE   W03
 BYTE   N01
 BYTE   W03
 BYTE   N01
 BYTE   W03
 BYTE   N01
 BYTE   W03
 BYTE   N01
 BYTE   W03
 BYTE   N01
 BYTE   W03
 BYTE   N01
 BYTE   W03
 BYTE   N01
 BYTE   W03
 BYTE   N01
 BYTE   W03
 BYTE   N01
 BYTE   W03
 BYTE   N01
 BYTE   W03
 BYTE   N01
 BYTE   W03
 BYTE   N01
 BYTE   W03
 BYTE   N01
 BYTE   W03
 BYTE   N01
 BYTE   W03
 BYTE   N01
 BYTE   W03
 BYTE   N01
 BYTE   W03
 BYTE   PEND 
 BYTE   PATT
  POIN2 Label_0_010822BC
 BYTE   PATT
  POIN2 Label_0_010822BC
// 002   ----------------------------------------
Label_0_01082309:
 BYTE   VOICE   85
 BYTE   VOL   71*CombatMission_mvl/mxv
 BYTE   PAN   c_v-25
 BYTE   W03
 BYTE   N01  Dn4  v092
 BYTE   W03
 BYTE   N02
 BYTE   W06
 BYTE   N01
 BYTE   W03
 BYTE   N01
 BYTE   W06
 BYTE   Dn4  v096
 BYTE   W06
 BYTE   Dn4  v088
 BYTE   W03
 BYTE   N02
 BYTE   W06
 BYTE   N01
 BYTE   W03
 BYTE   N01
 BYTE   W06
 BYTE   Dn4  v084
 BYTE   W06
 BYTE   Dn4  v092
 BYTE   W03
 BYTE   N02
 BYTE   W06
 BYTE   N01
 BYTE   W03
 BYTE   N01
 BYTE   W06
 BYTE   Dn4  v096
 BYTE   W06
 BYTE   Dn4  v088
 BYTE   W03
 BYTE   N02
 BYTE   W06
 BYTE   N01
 BYTE   W03
 BYTE   N01
 BYTE   W06
 BYTE   Dn4  v084
 BYTE   W03
 BYTE   PEND 
// 003   ----------------------------------------
 BYTE   W03
 BYTE   Dn4  v092
 BYTE   W03
 BYTE   N02
 BYTE   W06
 BYTE   N01
 BYTE   W03
 BYTE   N01
 BYTE   W06
 BYTE   Dn4  v096
 BYTE   W06
 BYTE   Dn4  v088
 BYTE   W03
 BYTE   N02
 BYTE   W06
 BYTE   N01
 BYTE   W03
 BYTE   N01
 BYTE   W06
 BYTE   Dn4  v084
 BYTE   W06
 BYTE   Dn4  v092
 BYTE   W03
 BYTE   N02
 BYTE   W06
 BYTE   N01
 BYTE   W03
 BYTE   N01
 BYTE   W06
 BYTE   Dn4  v096
 BYTE   W06
 BYTE   Dn4  v088
 BYTE   W03
 BYTE   N02
 BYTE   W06
 BYTE   N01
 BYTE   W03
 BYTE   N01
 BYTE   W06
 BYTE   Dn4  v084
 BYTE   W03
// 004   ----------------------------------------
 BYTE   GoTo
  POIN2 Label_0_01082272
// 005   ----------------------------------------
 BYTE   VOL   78*CombatMission_mvl/mxv
 BYTE   W01
 BYTE   VOICE   85
 BYTE   VOL   35*CombatMission_mvl/mxv
 BYTE   PAN   c_v-25
 BYTE   N01  Gn4  v104
 BYTE   W03
 BYTE   N01
 BYTE   W03
 BYTE   N01
 BYTE   W03
 BYTE   N01
 BYTE   W03
 BYTE   N01
 BYTE   W03
 BYTE   N01
 BYTE   W03
 BYTE   N01
 BYTE   W03
 BYTE   N01
 BYTE   W03
 BYTE   N01
 BYTE   W03
 BYTE   N01
 BYTE   W03
 BYTE   N01
 BYTE   W03
 BYTE   N01
 BYTE   W03
 BYTE   N01
 BYTE   W03
 BYTE   N01
 BYTE   W03
 BYTE   N01
 BYTE   W03
 BYTE   N01
 BYTE   W03
 BYTE   N01
 BYTE   W03
 BYTE   N01
 BYTE   W03
 BYTE   N01
 BYTE   W03
 BYTE   N01
 BYTE   W03
 BYTE   N01
 BYTE   W03
 BYTE   N01
 BYTE   W03
 BYTE   N01
 BYTE   W03
 BYTE   N01
 BYTE   W03
 BYTE   N01
 BYTE   W03
 BYTE   N01
 BYTE   W03
 BYTE   N01
 BYTE   W03
 BYTE   N01
 BYTE   W03
 BYTE   N01
 BYTE   W03
 BYTE   N01
 BYTE   W03
 BYTE   N01
 BYTE   W03
 BYTE   N01
 BYTE   W02
// 006   ----------------------------------------
Label_0_010823C3:
 BYTE   W01
 BYTE   N01  Gn4  v104
 BYTE   W03
 BYTE   N01
 BYTE   W03
 BYTE   N01
 BYTE   W03
 BYTE   N01
 BYTE   W03
 BYTE   N01
 BYTE   W03
 BYTE   N01
 BYTE   W03
 BYTE   N01
 BYTE   W03
 BYTE   N01
 BYTE   W03
 BYTE   N01
 BYTE   W03
 BYTE   N01
 BYTE   W03
 BYTE   N01
 BYTE   W03
 BYTE   N01
 BYTE   W03
 BYTE   N01
 BYTE   W03
 BYTE   N01
 BYTE   W03
 BYTE   N01
 BYTE   W03
 BYTE   N01
 BYTE   W03
 BYTE   N01
 BYTE   W03
 BYTE   N01
 BYTE   W03
 BYTE   N01
 BYTE   W03
 BYTE   N01
 BYTE   W03
 BYTE   N01
 BYTE   W03
 BYTE   N01
 BYTE   W03
 BYTE   N01
 BYTE   W03
 BYTE   N01
 BYTE   W03
 BYTE   N01
 BYTE   W03
 BYTE   N01
 BYTE   W03
 BYTE   N01
 BYTE   W03
 BYTE   N01
 BYTE   W03
 BYTE   N01
 BYTE   W03
 BYTE   N01
 BYTE   W03
 BYTE   N01
 BYTE   W03
 BYTE   N01
 BYTE   W02
 BYTE   PEND 
 BYTE   PATT
  POIN2 Label_0_010823C3
 BYTE   PATT
  POIN2 Label_0_010823C3
 BYTE   PATT
  POIN2 Label_0_01082309
// 007   ----------------------------------------
 BYTE   W03
 BYTE   N01  Dn4  v092
 BYTE   W03
 BYTE   N02
 BYTE   W06
 BYTE   N01
 BYTE   W03
 BYTE   N01
 BYTE   W06
 BYTE   Dn4  v096
 BYTE   W06
 BYTE   Dn4  v088
 BYTE   W03
 BYTE   N02
 BYTE   W06
 BYTE   N01
 BYTE   W03
 BYTE   N01
 BYTE   W06
 BYTE   Dn4  v084
 BYTE   W06
 BYTE   Dn4  v092
 BYTE   W03
 BYTE   N02
 BYTE   W06
 BYTE   N01
 BYTE   W03
 BYTE   N01
 BYTE   W06
 BYTE   Dn4  v096
 BYTE   W06
 BYTE   Dn4  v088
 BYTE   W03
 BYTE   N02
 BYTE   W06
 BYTE   N01
 BYTE   W03
 BYTE   N01
 BYTE   W06
 BYTE   Dn4  v084
 BYTE   W02
 BYTE   FINE

//**************** Track 2 (Midi-Chn.1) ****************//

CombatMission_002:
// 000   ----------------------------------------
 BYTE   KEYSH   CombatMission_key+0
Label_1_0108244E:
 BYTE   VOICE   85
 BYTE   VOL   25*CombatMission_mvl/mxv
 BYTE   W96
// 001   ----------------------------------------
 BYTE   W96
// 002   ----------------------------------------
 BYTE   W96
// 003   ----------------------------------------
 BYTE   W96
// 004   ----------------------------------------
Label_1_01082456:
 BYTE   W03
 BYTE   N01  An3  v092
 BYTE   W03
 BYTE   N02
 BYTE   W06
 BYTE   N01
 BYTE   W03
 BYTE   N01
 BYTE   W06
 BYTE   An3  v096
 BYTE   W06
 BYTE   An3  v088
 BYTE   W03
 BYTE   N02
 BYTE   W06
 BYTE   N01
 BYTE   W03
 BYTE   N01
 BYTE   W06
 BYTE   An3  v084
 BYTE   W06
 BYTE   An3  v092
 BYTE   W03
 BYTE   N02
 BYTE   W06
 BYTE   N01
 BYTE   W03
 BYTE   N01
 BYTE   W06
 BYTE   An3  v096
 BYTE   W06
 BYTE   An3  v088
 BYTE   W03
 BYTE   N02
 BYTE   W06
 BYTE   N01
 BYTE   W03
 BYTE   N01
 BYTE   W06
 BYTE   An3  v084
 BYTE   W03
 BYTE   PEND 
 BYTE   PATT
  POIN2 Label_1_01082456
// 005   ----------------------------------------
 BYTE   GoTo
  POIN2 Label_1_0108244E
// 006   ----------------------------------------
 BYTE   W96
// 007   ----------------------------------------
 BYTE   W96
// 008   ----------------------------------------
 BYTE   W96
// 009   ----------------------------------------
 BYTE   W96
 BYTE   PATT
  POIN2 Label_1_01082456
// 010   ----------------------------------------
 BYTE   W03
 BYTE   N01  An3  v092
 BYTE   W03
 BYTE   N02
 BYTE   W06
 BYTE   N01
 BYTE   W03
 BYTE   N01
 BYTE   W06
 BYTE   An3  v096
 BYTE   W06
 BYTE   An3  v088
 BYTE   W03
 BYTE   N02
 BYTE   W06
 BYTE   N01
 BYTE   W03
 BYTE   N01
 BYTE   W06
 BYTE   An3  v084
 BYTE   W06
 BYTE   An3  v092
 BYTE   W03
 BYTE   N02
 BYTE   W06
 BYTE   N01
 BYTE   W03
 BYTE   N01
 BYTE   W06
 BYTE   An3  v096
 BYTE   W06
 BYTE   An3  v088
 BYTE   W03
 BYTE   N02
 BYTE   W06
 BYTE   N01
 BYTE   W03
 BYTE   N01
 BYTE   W06
 BYTE   An3  v084
 BYTE   W02
 BYTE   FINE

//**************** Track 3 (Midi-Chn.2) ****************//

CombatMission_003:
// 000   ----------------------------------------
 BYTE   KEYSH   CombatMission_key+0
Label_2_010824D2:
 BYTE   VOICE   85
 BYTE   VOL   37*CombatMission_mvl/mxv
 BYTE   PAN   c_v-25
 BYTE   N02  Dn4  v104
 BYTE   W03
 BYTE   Cn4
 BYTE   W03
 BYTE   As3
 BYTE   W03
 BYTE   An3
 BYTE   W03
 BYTE   As3
 BYTE   W03
 BYTE   Gn3
 BYTE   W03
 BYTE   Dn4
 BYTE   W03
 BYTE   Cn4
 BYTE   W03
 BYTE   As3
 BYTE   W03
 BYTE   An3
 BYTE   W03
 BYTE   As3
 BYTE   W03
 BYTE   Gn3
 BYTE   W03
 BYTE   Dn4
 BYTE   W03
 BYTE   Cn4
 BYTE   W03
 BYTE   As3
 BYTE   W03
 BYTE   An3
 BYTE   W03
 BYTE   As3
 BYTE   W03
 BYTE   Gn3
 BYTE   W03
 BYTE   Dn4
 BYTE   W03
 BYTE   Cn4
 BYTE   W03
 BYTE   As3
 BYTE   W03
 BYTE   An3
 BYTE   W03
 BYTE   As3
 BYTE   W03
 BYTE   Gn3
 BYTE   W03
 BYTE   Dn4
 BYTE   W03
 BYTE   Cn4
 BYTE   W03
 BYTE   As3
 BYTE   W03
 BYTE   An3
 BYTE   W03
 BYTE   As3
 BYTE   W03
 BYTE   Gn3
 BYTE   W03
 BYTE   Dn4
 BYTE   W03
 BYTE   Cn4
 BYTE   W03
// 001   ----------------------------------------
 BYTE   As3
 BYTE   W03
 BYTE   Dn4
 BYTE   W03
 BYTE   An3
 BYTE   W03
 BYTE   Dn4
 BYTE   W03
 BYTE   Gn3
 BYTE   W03
 BYTE   Dn4
 BYTE   W03
 BYTE   An3
 BYTE   W03
 BYTE   Dn4
 BYTE   W03
 BYTE   As3
 BYTE   W03
 BYTE   Dn4
 BYTE   W03
 BYTE   Cn4
 BYTE   W03
 BYTE   Dn4
 BYTE   W03
 BYTE   As3
 BYTE   W03
 BYTE   Dn4
 BYTE   W03
 BYTE   An3
 BYTE   W03
 BYTE   Dn4
 BYTE   W03
 BYTE   As3
 BYTE   W03
 BYTE   Dn4
 BYTE   W03
 BYTE   An3
 BYTE   W03
 BYTE   Dn4
 BYTE   W03
 BYTE   Gn3
 BYTE   W03
 BYTE   Dn4
 BYTE   W03
 BYTE   Fs3
 BYTE   W03
 BYTE   Dn4
 BYTE   W03
 BYTE   Gn3
 BYTE   W03
 BYTE   Dn4
 BYTE   W03
 BYTE   An3
 BYTE   W03
 BYTE   Dn4
 BYTE   W03
 BYTE   As3
 BYTE   W03
 BYTE   Dn4
 BYTE   W03
 BYTE   An3
 BYTE   W03
 BYTE   As3
 BYTE   W03
// 002   ----------------------------------------
 BYTE   Dn4
 BYTE   W03
 BYTE   Cn4
 BYTE   W03
 BYTE   As3
 BYTE   W03
 BYTE   An3
 BYTE   W03
 BYTE   As3
 BYTE   W03
 BYTE   Gn3
 BYTE   W03
 BYTE   Dn4
 BYTE   W03
 BYTE   Cn4
 BYTE   W03
 BYTE   As3
 BYTE   W03
 BYTE   An3
 BYTE   W03
 BYTE   As3
 BYTE   W03
 BYTE   Gn3
 BYTE   W03
 BYTE   Dn4
 BYTE   W03
 BYTE   Cn4
 BYTE   W03
 BYTE   As3
 BYTE   W03
 BYTE   An3
 BYTE   W03
 BYTE   As3
 BYTE   W03
 BYTE   Gn3
 BYTE   W03
 BYTE   Dn4
 BYTE   W03
 BYTE   Cn4
 BYTE   W03
 BYTE   As3
 BYTE   W03
 BYTE   An3
 BYTE   W03
 BYTE   As3
 BYTE   W03
 BYTE   Gn3
 BYTE   W03
 BYTE   Dn4
 BYTE   W03
 BYTE   Cn4
 BYTE   W03
 BYTE   As3
 BYTE   W03
 BYTE   An3
 BYTE   W03
 BYTE   As3
 BYTE   W03
 BYTE   Gn3
 BYTE   W03
 BYTE   Dn4
 BYTE   W03
 BYTE   Cn4
 BYTE   W03
// 003   ----------------------------------------
 BYTE   As3
 BYTE   W03
 BYTE   Dn4
 BYTE   W03
 BYTE   An3
 BYTE   W03
 BYTE   Dn4
 BYTE   W03
 BYTE   Gn3
 BYTE   W03
 BYTE   Dn4
 BYTE   W03
 BYTE   An3
 BYTE   W03
 BYTE   Dn4
 BYTE   W03
 BYTE   As3
 BYTE   W03
 BYTE   Dn4
 BYTE   W03
 BYTE   Cn4
 BYTE   W03
 BYTE   Dn4
 BYTE   W03
 BYTE   As3
 BYTE   W03
 BYTE   Dn4
 BYTE   W03
 BYTE   An3
 BYTE   W03
 BYTE   Dn4
 BYTE   W03
 BYTE   As3
 BYTE   W03
 BYTE   Dn4
 BYTE   W03
 BYTE   An3
 BYTE   W03
 BYTE   Dn4
 BYTE   W03
 BYTE   Gn3
 BYTE   W03
 BYTE   Dn4
 BYTE   W03
 BYTE   Fs3
 BYTE   W03
 BYTE   Dn4
 BYTE   W03
 BYTE   Gn3
 BYTE   W03
 BYTE   Dn4
 BYTE   W03
 BYTE   An3
 BYTE   W03
 BYTE   Dn4
 BYTE   W03
 BYTE   As3
 BYTE   W03
 BYTE   Dn4
 BYTE   W03
 BYTE   An3
 BYTE   W03
 BYTE   N01  As3
 BYTE   W03
// 004   ----------------------------------------
Label_2_010825DB:
 BYTE   VOICE   85
 BYTE   VOL   74*CombatMission_mvl/mxv
 BYTE   PAN   c_v-14
 BYTE   W03
 BYTE   N01  An3  v092
 BYTE   W03
 BYTE   N02
 BYTE   W06
 BYTE   N01
 BYTE   W03
 BYTE   N01
 BYTE   W06
 BYTE   An3  v096
 BYTE   W06
 BYTE   An3  v088
 BYTE   W03
 BYTE   N02
 BYTE   W06
 BYTE   N01
 BYTE   W03
 BYTE   N01
 BYTE   W06
 BYTE   An3  v084
 BYTE   W06
 BYTE   An3  v092
 BYTE   W03
 BYTE   N02
 BYTE   W06
 BYTE   N01
 BYTE   W03
 BYTE   N01
 BYTE   W06
 BYTE   An3  v096
 BYTE   W06
 BYTE   An3  v088
 BYTE   W03
 BYTE   N02
 BYTE   W06
 BYTE   N01
 BYTE   W03
 BYTE   N01
 BYTE   W06
 BYTE   An3  v084
 BYTE   W03
 BYTE   PEND 
// 005   ----------------------------------------
 BYTE   W03
 BYTE   An3  v092
 BYTE   W03
 BYTE   N02
 BYTE   W06
 BYTE   N01
 BYTE   W03
 BYTE   N01
 BYTE   W06
 BYTE   An3  v096
 BYTE   W06
 BYTE   An3  v088
 BYTE   W03
 BYTE   N02
 BYTE   W06
 BYTE   N01
 BYTE   W03
 BYTE   N01
 BYTE   W06
 BYTE   An3  v084
 BYTE   W06
 BYTE   An3  v092
 BYTE   W03
 BYTE   N02
 BYTE   W06
 BYTE   N01
 BYTE   W03
 BYTE   N01
 BYTE   W06
 BYTE   An3  v096
 BYTE   W06
 BYTE   An3  v088
 BYTE   W03
 BYTE   N02
 BYTE   W06
 BYTE   N01
 BYTE   W03
 BYTE   N01
 BYTE   W06
 BYTE   An3  v084
 BYTE   W03
// 006   ----------------------------------------
 BYTE   GoTo
  POIN2 Label_2_010824D2
// 007   ----------------------------------------
 BYTE   VOL   81*CombatMission_mvl/mxv
 BYTE   W01
 BYTE   VOICE   85
 BYTE   VOL   37*CombatMission_mvl/mxv
 BYTE   PAN   c_v-25
 BYTE   N02  Dn4  v104
 BYTE   W03
 BYTE   Cn4
 BYTE   W03
 BYTE   As3
 BYTE   W03
 BYTE   An3
 BYTE   W03
 BYTE   As3
 BYTE   W03
 BYTE   Gn3
 BYTE   W03
 BYTE   Dn4
 BYTE   W03
 BYTE   Cn4
 BYTE   W03
 BYTE   As3
 BYTE   W03
 BYTE   An3
 BYTE   W03
 BYTE   As3
 BYTE   W03
 BYTE   Gn3
 BYTE   W03
 BYTE   Dn4
 BYTE   W03
 BYTE   Cn4
 BYTE   W03
 BYTE   As3
 BYTE   W03
 BYTE   An3
 BYTE   W03
 BYTE   As3
 BYTE   W03
 BYTE   Gn3
 BYTE   W03
 BYTE   Dn4
 BYTE   W03
 BYTE   Cn4
 BYTE   W03
 BYTE   As3
 BYTE   W03
 BYTE   An3
 BYTE   W03
 BYTE   As3
 BYTE   W03
 BYTE   Gn3
 BYTE   W03
 BYTE   Dn4
 BYTE   W03
 BYTE   Cn4
 BYTE   W03
 BYTE   As3
 BYTE   W03
 BYTE   An3
 BYTE   W03
 BYTE   As3
 BYTE   W03
 BYTE   Gn3
 BYTE   W03
 BYTE   Dn4
 BYTE   W03
 BYTE   Cn4
 BYTE   W02
// 008   ----------------------------------------
 BYTE   W01
 BYTE   As3
 BYTE   W03
 BYTE   Dn4
 BYTE   W03
 BYTE   An3
 BYTE   W03
 BYTE   Dn4
 BYTE   W03
 BYTE   Gn3
 BYTE   W03
 BYTE   Dn4
 BYTE   W03
 BYTE   An3
 BYTE   W03
 BYTE   Dn4
 BYTE   W03
 BYTE   As3
 BYTE   W03
 BYTE   Dn4
 BYTE   W03
 BYTE   Cn4
 BYTE   W03
 BYTE   Dn4
 BYTE   W03
 BYTE   As3
 BYTE   W03
 BYTE   Dn4
 BYTE   W03
 BYTE   An3
 BYTE   W03
 BYTE   Dn4
 BYTE   W03
 BYTE   As3
 BYTE   W03
 BYTE   Dn4
 BYTE   W03
 BYTE   An3
 BYTE   W03
 BYTE   Dn4
 BYTE   W03
 BYTE   Gn3
 BYTE   W03
 BYTE   Dn4
 BYTE   W03
 BYTE   Fs3
 BYTE   W03
 BYTE   Dn4
 BYTE   W03
 BYTE   Gn3
 BYTE   W03
 BYTE   Dn4
 BYTE   W03
 BYTE   An3
 BYTE   W03
 BYTE   Dn4
 BYTE   W03
 BYTE   As3
 BYTE   W03
 BYTE   Dn4
 BYTE   W03
 BYTE   An3
 BYTE   W03
 BYTE   As3
 BYTE   W02
// 009   ----------------------------------------
 BYTE   W01
 BYTE   Dn4
 BYTE   W03
 BYTE   Cn4
 BYTE   W03
 BYTE   As3
 BYTE   W03
 BYTE   An3
 BYTE   W03
 BYTE   As3
 BYTE   W03
 BYTE   Gn3
 BYTE   W03
 BYTE   Dn4
 BYTE   W03
 BYTE   Cn4
 BYTE   W03
 BYTE   As3
 BYTE   W03
 BYTE   An3
 BYTE   W03
 BYTE   As3
 BYTE   W03
 BYTE   Gn3
 BYTE   W03
 BYTE   Dn4
 BYTE   W03
 BYTE   Cn4
 BYTE   W03
 BYTE   As3
 BYTE   W03
 BYTE   An3
 BYTE   W03
 BYTE   As3
 BYTE   W03
 BYTE   Gn3
 BYTE   W03
 BYTE   Dn4
 BYTE   W03
 BYTE   Cn4
 BYTE   W03
 BYTE   As3
 BYTE   W03
 BYTE   An3
 BYTE   W03
 BYTE   As3
 BYTE   W03
 BYTE   Gn3
 BYTE   W03
 BYTE   Dn4
 BYTE   W03
 BYTE   Cn4
 BYTE   W03
 BYTE   As3
 BYTE   W03
 BYTE   An3
 BYTE   W03
 BYTE   As3
 BYTE   W03
 BYTE   Gn3
 BYTE   W03
 BYTE   Dn4
 BYTE   W03
 BYTE   Cn4
 BYTE   W02
// 010   ----------------------------------------
 BYTE   W01
 BYTE   As3
 BYTE   W03
 BYTE   Dn4
 BYTE   W03
 BYTE   An3
 BYTE   W03
 BYTE   Dn4
 BYTE   W03
 BYTE   Gn3
 BYTE   W03
 BYTE   Dn4
 BYTE   W03
 BYTE   An3
 BYTE   W03
 BYTE   Dn4
 BYTE   W03
 BYTE   As3
 BYTE   W03
 BYTE   Dn4
 BYTE   W03
 BYTE   Cn4
 BYTE   W03
 BYTE   Dn4
 BYTE   W03
 BYTE   As3
 BYTE   W03
 BYTE   Dn4
 BYTE   W03
 BYTE   An3
 BYTE   W03
 BYTE   Dn4
 BYTE   W03
 BYTE   As3
 BYTE   W03
 BYTE   Dn4
 BYTE   W03
 BYTE   An3
 BYTE   W03
 BYTE   Dn4
 BYTE   W03
 BYTE   Gn3
 BYTE   W03
 BYTE   Dn4
 BYTE   W03
 BYTE   Fs3
 BYTE   W03
 BYTE   Dn4
 BYTE   W03
 BYTE   Gn3
 BYTE   W03
 BYTE   Dn4
 BYTE   W03
 BYTE   An3
 BYTE   W03
 BYTE   Dn4
 BYTE   W03
 BYTE   As3
 BYTE   W03
 BYTE   Dn4
 BYTE   W03
 BYTE   An3
 BYTE   W03
 BYTE   N01  As3
 BYTE   W02
 BYTE   PATT
  POIN2 Label_2_010825DB
// 011   ----------------------------------------
 BYTE   W03
 BYTE   N01  An3  v092
 BYTE   W03
 BYTE   N02
 BYTE   W06
 BYTE   N01
 BYTE   W03
 BYTE   N01
 BYTE   W06
 BYTE   An3  v096
 BYTE   W06
 BYTE   An3  v088
 BYTE   W03
 BYTE   N02
 BYTE   W06
 BYTE   N01
 BYTE   W03
 BYTE   N01
 BYTE   W06
 BYTE   An3  v084
 BYTE   W06
 BYTE   An3  v092
 BYTE   W03
 BYTE   N02
 BYTE   W06
 BYTE   N01
 BYTE   W03
 BYTE   N01
 BYTE   W06
 BYTE   An3  v096
 BYTE   W06
 BYTE   An3  v088
 BYTE   W03
 BYTE   N02
 BYTE   W06
 BYTE   N01
 BYTE   W03
 BYTE   N01
 BYTE   W06
 BYTE   An3  v084
 BYTE   W02
 BYTE   FINE

//**************** Track 4 (Midi-Chn.3) ****************//

CombatMission_004:
// 000   ----------------------------------------
 BYTE   KEYSH   CombatMission_key+0
Label_3_01082796:
 BYTE   VOICE   109
 BYTE   VOL   65*CombatMission_mvl/mxv
 BYTE   PAN   c_v-43
 BYTE   N02  Gn3  v104
 BYTE   W03
 BYTE   Dn4
 BYTE   W03
 BYTE   Gn4
 BYTE   W03
 BYTE   Dn4
 BYTE   W03
 BYTE   Gn3
 BYTE   W03
 BYTE   Dn4
 BYTE   W03
 BYTE   Gn4
 BYTE   W03
 BYTE   Dn4
 BYTE   W03
 BYTE   Gn3
 BYTE   W03
 BYTE   Dn4
 BYTE   W03
 BYTE   Gn4
 BYTE   W03
 BYTE   Dn4
 BYTE   W03
 BYTE   Gn3
 BYTE   W03
 BYTE   Dn4
 BYTE   W03
 BYTE   Gn4
 BYTE   W03
 BYTE   Dn4
 BYTE   W03
 BYTE   Gn3
 BYTE   W03
 BYTE   Dn4
 BYTE   W03
 BYTE   Gn4
 BYTE   W03
 BYTE   Dn4
 BYTE   W03
 BYTE   Gn3
 BYTE   W03
 BYTE   Dn4
 BYTE   W03
 BYTE   Gn4
 BYTE   W03
 BYTE   Dn4
 BYTE   W03
 BYTE   Gn3
 BYTE   W03
 BYTE   Dn4
 BYTE   W03
 BYTE   Gn4
 BYTE   W03
 BYTE   Dn4
 BYTE   W03
 BYTE   Gn3
 BYTE   W03
 BYTE   Dn4
 BYTE   W03
 BYTE   Gn4
 BYTE   W03
 BYTE   Dn4
 BYTE   W03
// 001   ----------------------------------------
Label_3_010827DE:
 BYTE   N02  Gn3  v104
 BYTE   W03
 BYTE   Dn4
 BYTE   W03
 BYTE   Gn4
 BYTE   W03
 BYTE   Dn4
 BYTE   W03
 BYTE   Gn3
 BYTE   W03
 BYTE   Dn4
 BYTE   W03
 BYTE   Gn4
 BYTE   W03
 BYTE   Dn4
 BYTE   W03
 BYTE   Gn3
 BYTE   W03
 BYTE   Dn4
 BYTE   W03
 BYTE   Gn4
 BYTE   W03
 BYTE   Dn4
 BYTE   W03
 BYTE   Gn3
 BYTE   W03
 BYTE   Dn4
 BYTE   W03
 BYTE   Gn4
 BYTE   W03
 BYTE   Dn4
 BYTE   W03
 BYTE   Gn3
 BYTE   W03
 BYTE   Dn4
 BYTE   W03
 BYTE   Gn4
 BYTE   W03
 BYTE   Dn4
 BYTE   W03
 BYTE   Gn3
 BYTE   W03
 BYTE   Dn4
 BYTE   W03
 BYTE   Gn4
 BYTE   W03
 BYTE   Dn4
 BYTE   W03
 BYTE   Gn3
 BYTE   W03
 BYTE   Dn4
 BYTE   W03
 BYTE   Gn4
 BYTE   W03
 BYTE   Dn4
 BYTE   W03
 BYTE   Gn3
 BYTE   W03
 BYTE   Dn4
 BYTE   W03
 BYTE   Gn4
 BYTE   W03
 BYTE   Dn4
 BYTE   W03
 BYTE   PEND 
 BYTE   PATT
  POIN2 Label_3_010827DE
// 002   ----------------------------------------
 BYTE   N02  Gn3  v104
 BYTE   W03
 BYTE   Dn4
 BYTE   W03
 BYTE   Gn4
 BYTE   W03
 BYTE   Dn4
 BYTE   W03
 BYTE   Gn3
 BYTE   W03
 BYTE   Dn4
 BYTE   W03
 BYTE   Gn4
 BYTE   W03
 BYTE   Dn4
 BYTE   W03
 BYTE   Gn3
 BYTE   W03
 BYTE   Dn4
 BYTE   W03
 BYTE   Gn4
 BYTE   W03
 BYTE   Dn4
 BYTE   W03
 BYTE   Gn3
 BYTE   W03
 BYTE   Dn4
 BYTE   W03
 BYTE   Gn4
 BYTE   W03
 BYTE   Dn4
 BYTE   W03
 BYTE   Gn3
 BYTE   W03
 BYTE   Dn4
 BYTE   W03
 BYTE   Gn4
 BYTE   W03
 BYTE   Dn4
 BYTE   W03
 BYTE   Gn3
 BYTE   W03
 BYTE   Dn4
 BYTE   W03
 BYTE   Gn4
 BYTE   W03
 BYTE   Dn4
 BYTE   W03
 BYTE   Gn3
 BYTE   W03
 BYTE   Dn4
 BYTE   W03
 BYTE   Gn4
 BYTE   W03
 BYTE   Dn4
 BYTE   W03
 BYTE   Gn3
 BYTE   W03
 BYTE   Dn4
 BYTE   W03
 BYTE   N01  Gn3
 BYTE   W01
 BYTE   An2
 BYTE   W02
 BYTE   As2
 BYTE   W02
 BYTE   N44  Dn3
 BYTE   W01
// 003   ----------------------------------------
 BYTE   W44
 BYTE   W03
 BYTE   N23  Gn3
 BYTE   W24
 BYTE   Dn4
 BYTE   W24
 BYTE   N44  Gn4
 BYTE   W01
// 004   ----------------------------------------
 BYTE   W44
 BYTE   W03
 BYTE   N23  Dn4
 BYTE   W24
 BYTE   Dn3
 BYTE   W24
 BYTE   W01
// 005   ----------------------------------------
 BYTE   GoTo
  POIN2 Label_3_01082796
// 006   ----------------------------------------
 BYTE   VOICE   109
 BYTE   VOL   65*CombatMission_mvl/mxv
 BYTE   PAN   c_v-43
 BYTE   N02  Gn3  v104
 BYTE   W03
 BYTE   Dn4
 BYTE   W03
 BYTE   Gn4
 BYTE   W03
 BYTE   Dn4
 BYTE   W03
 BYTE   Gn3
 BYTE   W03
 BYTE   Dn4
 BYTE   W03
 BYTE   Gn4
 BYTE   W03
 BYTE   Dn4
 BYTE   W03
 BYTE   Gn3
 BYTE   W03
 BYTE   Dn4
 BYTE   W03
 BYTE   Gn4
 BYTE   W03
 BYTE   Dn4
 BYTE   W03
 BYTE   Gn3
 BYTE   W03
 BYTE   Dn4
 BYTE   W03
 BYTE   Gn4
 BYTE   W03
 BYTE   Dn4
 BYTE   W03
 BYTE   Gn3
 BYTE   W03
 BYTE   Dn4
 BYTE   W03
 BYTE   Gn4
 BYTE   W03
 BYTE   Dn4
 BYTE   W03
 BYTE   Gn3
 BYTE   W03
 BYTE   Dn4
 BYTE   W03
 BYTE   Gn4
 BYTE   W03
 BYTE   Dn4
 BYTE   W03
 BYTE   Gn3
 BYTE   W03
 BYTE   Dn4
 BYTE   W03
 BYTE   Gn4
 BYTE   W03
 BYTE   Dn4
 BYTE   W03
 BYTE   Gn3
 BYTE   W03
 BYTE   Dn4
 BYTE   W03
 BYTE   Gn4
 BYTE   W03
 BYTE   Dn4
 BYTE   W03
 BYTE   PATT
  POIN2 Label_3_010827DE
 BYTE   PATT
  POIN2 Label_3_010827DE
// 007   ----------------------------------------
 BYTE   N02  Gn3  v104
 BYTE   W03
 BYTE   Dn4
 BYTE   W03
 BYTE   Gn4
 BYTE   W03
 BYTE   Dn4
 BYTE   W03
 BYTE   Gn3
 BYTE   W03
 BYTE   Dn4
 BYTE   W03
 BYTE   Gn4
 BYTE   W03
 BYTE   Dn4
 BYTE   W03
 BYTE   Gn3
 BYTE   W03
 BYTE   Dn4
 BYTE   W03
 BYTE   Gn4
 BYTE   W03
 BYTE   Dn4
 BYTE   W03
 BYTE   Gn3
 BYTE   W03
 BYTE   Dn4
 BYTE   W03
 BYTE   Gn4
 BYTE   W03
 BYTE   Dn4
 BYTE   W03
 BYTE   Gn3
 BYTE   W03
 BYTE   Dn4
 BYTE   W03
 BYTE   Gn4
 BYTE   W03
 BYTE   Dn4
 BYTE   W03
 BYTE   Gn3
 BYTE   W03
 BYTE   Dn4
 BYTE   W03
 BYTE   Gn4
 BYTE   W03
 BYTE   Dn4
 BYTE   W03
 BYTE   Gn3
 BYTE   W03
 BYTE   Dn4
 BYTE   W03
 BYTE   Gn4
 BYTE   W03
 BYTE   Dn4
 BYTE   W03
 BYTE   Gn3
 BYTE   W03
 BYTE   Dn4
 BYTE   W03
 BYTE   N01  Gn3
 BYTE   W02
 BYTE   An2
 BYTE   W01
 BYTE   As2
 BYTE   W03
// 008   ----------------------------------------
 BYTE   N44  Dn3
 BYTE   W48
 BYTE   N23  Gn3
 BYTE   W24
 BYTE   Dn4
 BYTE   W24
// 009   ----------------------------------------
 BYTE   N44  Gn4
 BYTE   W48
 BYTE   N23  Dn4
 BYTE   W24
 BYTE   Dn3
 BYTE   W23
 BYTE   FINE

//**************** Track 5 (Midi-Chn.4) ****************//

CombatMission_005:
// 000   ----------------------------------------
 BYTE   KEYSH   CombatMission_key+0
Label_4_01082932:
 BYTE   VOICE   85
 BYTE   VOL   79*CombatMission_mvl/mxv
 BYTE   PAN   c_v+25
 BYTE   VOL   79*CombatMission_mvl/mxv
 BYTE   N02  Dn4  v104
 BYTE   W03
 BYTE   Cn4
 BYTE   W03
 BYTE   As3
 BYTE   W03
 BYTE   An3
 BYTE   W03
 BYTE   As3
 BYTE   W03
 BYTE   Gn3
 BYTE   W03
 BYTE   Dn4
 BYTE   W03
 BYTE   Cn4
 BYTE   W03
 BYTE   As3
 BYTE   W03
 BYTE   An3
 BYTE   W03
 BYTE   As3
 BYTE   W03
 BYTE   Gn3
 BYTE   W03
 BYTE   Dn4
 BYTE   W03
 BYTE   Cn4
 BYTE   W03
 BYTE   As3
 BYTE   W03
 BYTE   An3
 BYTE   W03
 BYTE   As3
 BYTE   W03
 BYTE   Gn3
 BYTE   W03
 BYTE   Dn4
 BYTE   W03
 BYTE   Cn4
 BYTE   W03
 BYTE   As3
 BYTE   W03
 BYTE   An3
 BYTE   W03
 BYTE   As3
 BYTE   W03
 BYTE   Gn3
 BYTE   W03
 BYTE   Dn4
 BYTE   W03
 BYTE   Cn4
 BYTE   W03
 BYTE   As3
 BYTE   W03
 BYTE   An3
 BYTE   W03
 BYTE   As3
 BYTE   W03
 BYTE   Gn3
 BYTE   W03
 BYTE   Dn4
 BYTE   W03
 BYTE   Cn4
 BYTE   W03
// 001   ----------------------------------------
Label_4_0108297C:
 BYTE   N02  As3  v104
 BYTE   W03
 BYTE   Dn4
 BYTE   W03
 BYTE   An3
 BYTE   W03
 BYTE   Dn4
 BYTE   W03
 BYTE   Gn3
 BYTE   W03
 BYTE   Dn4
 BYTE   W03
 BYTE   An3
 BYTE   W03
 BYTE   Dn4
 BYTE   W03
 BYTE   As3
 BYTE   W03
 BYTE   Dn4
 BYTE   W03
 BYTE   Cn4
 BYTE   W03
 BYTE   Dn4
 BYTE   W03
 BYTE   As3
 BYTE   W03
 BYTE   Dn4
 BYTE   W03
 BYTE   An3
 BYTE   W03
 BYTE   Dn4
 BYTE   W03
 BYTE   As3
 BYTE   W03
 BYTE   Dn4
 BYTE   W03
 BYTE   An3
 BYTE   W03
 BYTE   Dn4
 BYTE   W03
 BYTE   Gn3
 BYTE   W03
 BYTE   Dn4
 BYTE   W03
 BYTE   Fs3
 BYTE   W03
 BYTE   Dn4
 BYTE   W03
 BYTE   Gn3
 BYTE   W03
 BYTE   Dn4
 BYTE   W03
 BYTE   An3
 BYTE   W03
 BYTE   Dn4
 BYTE   W03
 BYTE   As3
 BYTE   W03
 BYTE   Dn4
 BYTE   W03
 BYTE   An3
 BYTE   W03
 BYTE   As3
 BYTE   W03
 BYTE   PEND 
// 002   ----------------------------------------
Label_4_010829BF:
 BYTE   N02  Dn4  v104
 BYTE   W03
 BYTE   Cn4
 BYTE   W03
 BYTE   As3
 BYTE   W03
 BYTE   An3
 BYTE   W03
 BYTE   As3
 BYTE   W03
 BYTE   Gn3
 BYTE   W03
 BYTE   Dn4
 BYTE   W03
 BYTE   Cn4
 BYTE   W03
 BYTE   As3
 BYTE   W03
 BYTE   An3
 BYTE   W03
 BYTE   As3
 BYTE   W03
 BYTE   Gn3
 BYTE   W03
 BYTE   Dn4
 BYTE   W03
 BYTE   Cn4
 BYTE   W03
 BYTE   As3
 BYTE   W03
 BYTE   An3
 BYTE   W03
 BYTE   As3
 BYTE   W03
 BYTE   Gn3
 BYTE   W03
 BYTE   Dn4
 BYTE   W03
 BYTE   Cn4
 BYTE   W03
 BYTE   As3
 BYTE   W03
 BYTE   An3
 BYTE   W03
 BYTE   As3
 BYTE   W03
 BYTE   Gn3
 BYTE   W03
 BYTE   Dn4
 BYTE   W03
 BYTE   Cn4
 BYTE   W03
 BYTE   As3
 BYTE   W03
 BYTE   An3
 BYTE   W03
 BYTE   As3
 BYTE   W03
 BYTE   Gn3
 BYTE   W03
 BYTE   Dn4
 BYTE   W03
 BYTE   Cn4
 BYTE   W03
 BYTE   PEND 
 BYTE   PATT
  POIN2 Label_4_0108297C
// 003   ----------------------------------------
Label_4_01082A07:
 BYTE   W03
 BYTE   N01  Gn4  v092
 BYTE   W03
 BYTE   N02
 BYTE   W06
 BYTE   N01
 BYTE   W03
 BYTE   N01
 BYTE   W06
 BYTE   Gn4  v096
 BYTE   W06
 BYTE   Fs4  v088
 BYTE   W03
 BYTE   N02
 BYTE   W06
 BYTE   N01
 BYTE   W03
 BYTE   N01
 BYTE   W06
 BYTE   Fs4  v084
 BYTE   W06
 BYTE   Gn4  v092
 BYTE   W03
 BYTE   N02
 BYTE   W06
 BYTE   N01
 BYTE   W03
 BYTE   N01
 BYTE   W06
 BYTE   Gn4  v096
 BYTE   W06
 BYTE   Fs4  v088
 BYTE   W03
 BYTE   N02
 BYTE   W06
 BYTE   N01
 BYTE   W03
 BYTE   N01
 BYTE   W06
 BYTE   Fs4  v084
 BYTE   W03
 BYTE   PEND 
// 004   ----------------------------------------
 BYTE   VOL   86*CombatMission_mvl/mxv
 BYTE   W03
 BYTE   N01  Gn4  v092
 BYTE   W03
 BYTE   N02
 BYTE   W06
 BYTE   N01
 BYTE   W03
 BYTE   N01
 BYTE   W06
 BYTE   Gn4  v096
 BYTE   W06
 BYTE   Fs4  v088
 BYTE   W03
 BYTE   N02
 BYTE   W06
 BYTE   N01
 BYTE   W03
 BYTE   N01
 BYTE   W06
 BYTE   Fs4  v084
 BYTE   W06
 BYTE   Gn4  v092
 BYTE   W03
 BYTE   N02
 BYTE   W06
 BYTE   N01
 BYTE   W03
 BYTE   N01
 BYTE   W06
 BYTE   Gn4  v096
 BYTE   W06
 BYTE   Fs4  v088
 BYTE   W03
 BYTE   N02
 BYTE   W06
 BYTE   N01
 BYTE   W03
 BYTE   N01
 BYTE   W06
 BYTE   Fs4  v084
 BYTE   W03
// 005   ----------------------------------------
 BYTE   GoTo
  POIN2 Label_4_01082932
// 006   ----------------------------------------
 BYTE   VOL   79*CombatMission_mvl/mxv
 BYTE   N02  Dn4  v104
 BYTE   W03
 BYTE   Cn4
 BYTE   W03
 BYTE   As3
 BYTE   W03
 BYTE   An3
 BYTE   W03
 BYTE   As3
 BYTE   W03
 BYTE   Gn3
 BYTE   W03
 BYTE   Dn4
 BYTE   W03
 BYTE   Cn4
 BYTE   W03
 BYTE   As3
 BYTE   W03
 BYTE   An3
 BYTE   W03
 BYTE   As3
 BYTE   W03
 BYTE   Gn3
 BYTE   W03
 BYTE   Dn4
 BYTE   W03
 BYTE   Cn4
 BYTE   W03
 BYTE   As3
 BYTE   W03
 BYTE   An3
 BYTE   W03
 BYTE   As3
 BYTE   W03
 BYTE   Gn3
 BYTE   W03
 BYTE   Dn4
 BYTE   W03
 BYTE   Cn4
 BYTE   W03
 BYTE   As3
 BYTE   W03
 BYTE   An3
 BYTE   W03
 BYTE   As3
 BYTE   W03
 BYTE   Gn3
 BYTE   W03
 BYTE   Dn4
 BYTE   W03
 BYTE   Cn4
 BYTE   W03
 BYTE   As3
 BYTE   W03
 BYTE   An3
 BYTE   W03
 BYTE   As3
 BYTE   W03
 BYTE   Gn3
 BYTE   W03
 BYTE   Dn4
 BYTE   W03
 BYTE   Cn4
 BYTE   W03
 BYTE   PATT
  POIN2 Label_4_0108297C
 BYTE   PATT
  POIN2 Label_4_010829BF
 BYTE   PATT
  POIN2 Label_4_0108297C
 BYTE   PATT
  POIN2 Label_4_01082A07
// 007   ----------------------------------------
 BYTE   VOL   86*CombatMission_mvl/mxv
 BYTE   W03
 BYTE   N01  Gn4  v092
 BYTE   W03
 BYTE   N02
 BYTE   W06
 BYTE   N01
 BYTE   W03
 BYTE   N01
 BYTE   W06
 BYTE   Gn4  v096
 BYTE   W06
 BYTE   Fs4  v088
 BYTE   W03
 BYTE   N02
 BYTE   W06
 BYTE   N01
 BYTE   W03
 BYTE   N01
 BYTE   W06
 BYTE   Fs4  v084
 BYTE   W06
 BYTE   Gn4  v092
 BYTE   W03
 BYTE   N02
 BYTE   W06
 BYTE   N01
 BYTE   W03
 BYTE   N01
 BYTE   W06
 BYTE   Gn4  v096
 BYTE   W06
 BYTE   Fs4  v088
 BYTE   W03
 BYTE   N02
 BYTE   W06
 BYTE   N01
 BYTE   W03
 BYTE   N01
 BYTE   W06
 BYTE   Fs4  v084
 BYTE   W02
 BYTE   FINE

//**************** Track 6 (Midi-Chn.5) ****************//

CombatMission_006:
// 000   ----------------------------------------
 BYTE   KEYSH   CombatMission_key+0
Label_5_01082B02:
 BYTE   VOICE   85
 BYTE   VOL   76*CombatMission_mvl/mxv
 BYTE   PAN   c_v+14
 BYTE   VOL   76*CombatMission_mvl/mxv
 BYTE   N01  Gn4  v104
 BYTE   W03
 BYTE   N01
 BYTE   W03
 BYTE   N01
 BYTE   W03
 BYTE   N01
 BYTE   W03
 BYTE   N01
 BYTE   W03
 BYTE   N01
 BYTE   W03
 BYTE   N01
 BYTE   W03
 BYTE   N01
 BYTE   W03
 BYTE   N01
 BYTE   W03
 BYTE   N01
 BYTE   W03
 BYTE   N01
 BYTE   W03
 BYTE   N01
 BYTE   W03
 BYTE   N01
 BYTE   W03
 BYTE   N01
 BYTE   W03
 BYTE   N01
 BYTE   W03
 BYTE   N01
 BYTE   W03
 BYTE   N01
 BYTE   W03
 BYTE   N01
 BYTE   W03
 BYTE   N01
 BYTE   W03
 BYTE   N01
 BYTE   W03
 BYTE   N01
 BYTE   W03
 BYTE   N01
 BYTE   W03
 BYTE   N01
 BYTE   W03
 BYTE   N01
 BYTE   W03
 BYTE   N01
 BYTE   W03
 BYTE   N01
 BYTE   W03
 BYTE   N01
 BYTE   W03
 BYTE   N01
 BYTE   W03
 BYTE   N01
 BYTE   W03
 BYTE   N01
 BYTE   W03
 BYTE   N01
 BYTE   W03
 BYTE   N01
 BYTE   W03
// 001   ----------------------------------------
Label_5_01082B4C:
 BYTE   N01  Gn4  v104
 BYTE   W03
 BYTE   N01
 BYTE   W03
 BYTE   N01
 BYTE   W03
 BYTE   N01
 BYTE   W03
 BYTE   N01
 BYTE   W03
 BYTE   N01
 BYTE   W03
 BYTE   N01
 BYTE   W03
 BYTE   N01
 BYTE   W03
 BYTE   N01
 BYTE   W03
 BYTE   N01
 BYTE   W03
 BYTE   N01
 BYTE   W03
 BYTE   N01
 BYTE   W03
 BYTE   N01
 BYTE   W03
 BYTE   N01
 BYTE   W03
 BYTE   N01
 BYTE   W03
 BYTE   N01
 BYTE   W03
 BYTE   N01
 BYTE   W03
 BYTE   N01
 BYTE   W03
 BYTE   N01
 BYTE   W03
 BYTE   N01
 BYTE   W03
 BYTE   N01
 BYTE   W03
 BYTE   N01
 BYTE   W03
 BYTE   N01
 BYTE   W03
 BYTE   N01
 BYTE   W03
 BYTE   N01
 BYTE   W03
 BYTE   N01
 BYTE   W03
 BYTE   N01
 BYTE   W03
 BYTE   N01
 BYTE   W03
 BYTE   N01
 BYTE   W03
 BYTE   N01
 BYTE   W03
 BYTE   N01
 BYTE   W03
 BYTE   N01
 BYTE   W03
 BYTE   PEND 
 BYTE   PATT
  POIN2 Label_5_01082B4C
 BYTE   PATT
  POIN2 Label_5_01082B4C
// 002   ----------------------------------------
Label_5_01082B99:
 BYTE   W03
 BYTE   N01  Cn4  v092
 BYTE   W03
 BYTE   N02
 BYTE   W06
 BYTE   N01
 BYTE   W03
 BYTE   N01
 BYTE   W06
 BYTE   Cn4  v096
 BYTE   W06
 BYTE   Cn4  v088
 BYTE   W03
 BYTE   N02
 BYTE   W06
 BYTE   N01
 BYTE   W03
 BYTE   N01
 BYTE   W06
 BYTE   Cn4  v084
 BYTE   W06
 BYTE   Cn4  v092
 BYTE   W03
 BYTE   N02
 BYTE   W06
 BYTE   N01
 BYTE   W03
 BYTE   N01
 BYTE   W06
 BYTE   Cn4  v096
 BYTE   W06
 BYTE   Cn4  v088
 BYTE   W03
 BYTE   N02
 BYTE   W06
 BYTE   N01
 BYTE   W03
 BYTE   N01
 BYTE   W06
 BYTE   Cn4  v084
 BYTE   W03
 BYTE   PEND 
 BYTE   PATT
  POIN2 Label_5_01082B99
// 003   ----------------------------------------
 BYTE   GoTo
  POIN2 Label_5_01082B02
// 004   ----------------------------------------
 BYTE   VOL   76*CombatMission_mvl/mxv
 BYTE   N01  Gn4  v104
 BYTE   W03
 BYTE   N01
 BYTE   W03
 BYTE   N01
 BYTE   W03
 BYTE   N01
 BYTE   W03
 BYTE   N01
 BYTE   W03
 BYTE   N01
 BYTE   W03
 BYTE   N01
 BYTE   W03
 BYTE   N01
 BYTE   W03
 BYTE   N01
 BYTE   W03
 BYTE   N01
 BYTE   W03
 BYTE   N01
 BYTE   W03
 BYTE   N01
 BYTE   W03
 BYTE   N01
 BYTE   W03
 BYTE   N01
 BYTE   W03
 BYTE   N01
 BYTE   W03
 BYTE   N01
 BYTE   W03
 BYTE   N01
 BYTE   W03
 BYTE   N01
 BYTE   W03
 BYTE   N01
 BYTE   W03
 BYTE   N01
 BYTE   W03
 BYTE   N01
 BYTE   W03
 BYTE   N01
 BYTE   W03
 BYTE   N01
 BYTE   W03
 BYTE   N01
 BYTE   W03
 BYTE   N01
 BYTE   W03
 BYTE   N01
 BYTE   W03
 BYTE   N01
 BYTE   W03
 BYTE   N01
 BYTE   W03
 BYTE   N01
 BYTE   W03
 BYTE   N01
 BYTE   W03
 BYTE   N01
 BYTE   W03
 BYTE   N01
 BYTE   W03
 BYTE   PATT
  POIN2 Label_5_01082B4C
 BYTE   PATT
  POIN2 Label_5_01082B4C
 BYTE   PATT
  POIN2 Label_5_01082B4C
 BYTE   PATT
  POIN2 Label_5_01082B99
// 005   ----------------------------------------
 BYTE   W03
 BYTE   N01  Cn4  v092
 BYTE   W03
 BYTE   N02
 BYTE   W06
 BYTE   N01
 BYTE   W03
 BYTE   N01
 BYTE   W06
 BYTE   Cn4  v096
 BYTE   W06
 BYTE   Cn4  v088
 BYTE   W03
 BYTE   N02
 BYTE   W06
 BYTE   N01
 BYTE   W03
 BYTE   N01
 BYTE   W06
 BYTE   Cn4  v084
 BYTE   W06
 BYTE   Cn4  v092
 BYTE   W03
 BYTE   N02
 BYTE   W06
 BYTE   N01
 BYTE   W03
 BYTE   N01
 BYTE   W06
 BYTE   Cn4  v096
 BYTE   W06
 BYTE   Cn4  v088
 BYTE   W03
 BYTE   N02
 BYTE   W06
 BYTE   N01
 BYTE   W03
 BYTE   N01
 BYTE   W06
 BYTE   Cn4  v084
 BYTE   W02
 BYTE   FINE

//**************** Track 7 (Midi-Chn.6) ****************//

CombatMission_007:
// 000   ----------------------------------------
 BYTE   KEYSH   CombatMission_key+0
Label_6_01082C66:
 BYTE   VOICE   33
 BYTE   VOL   65*CombatMission_mvl/mxv
 BYTE   PAN   c_v+0
 BYTE   N05  Gn3  v104
 BYTE   W09
 BYTE   N05
 BYTE   W09
 BYTE   N05
 BYTE   W09
 BYTE   N05
 BYTE   W09
 BYTE   N03
 BYTE   W06
 BYTE   N03
 BYTE   W06
 BYTE   N05  Cn3
 BYTE   W09
 BYTE   N05
 BYTE   W09
 BYTE   N05
 BYTE   W09
 BYTE   N05
 BYTE   W09
 BYTE   N03
 BYTE   W06
 BYTE   N03
 BYTE   W06
// 001   ----------------------------------------
Label_6_01082C87:
 BYTE   N05  Fn3  v104
 BYTE   W09
 BYTE   N05
 BYTE   W09
 BYTE   N05
 BYTE   W09
 BYTE   N05
 BYTE   W09
 BYTE   N03
 BYTE   W06
 BYTE   N03
 BYTE   W06
 BYTE   N05  Gn3
 BYTE   W09
 BYTE   N05
 BYTE   W09
 BYTE   N05
 BYTE   W09
 BYTE   N05
 BYTE   W09
 BYTE   N03
 BYTE   W06
 BYTE   N03
 BYTE   W06
 BYTE   PEND 
// 002   ----------------------------------------
Label_6_01082CA3:
 BYTE   N05  Gn3  v104
 BYTE   W09
 BYTE   N05
 BYTE   W09
 BYTE   N05
 BYTE   W09
 BYTE   N05
 BYTE   W09
 BYTE   N03
 BYTE   W06
 BYTE   N03
 BYTE   W06
 BYTE   N05  Cn3
 BYTE   W09
 BYTE   N05
 BYTE   W09
 BYTE   N05
 BYTE   W09
 BYTE   N05
 BYTE   W09
 BYTE   N03
 BYTE   W06
 BYTE   N03
 BYTE   W06
 BYTE   PEND 
// 003   ----------------------------------------
 BYTE   N05  Fn3
 BYTE   W09
 BYTE   N05
 BYTE   W09
 BYTE   N05
 BYTE   W09
 BYTE   N05
 BYTE   W09
 BYTE   N03
 BYTE   W06
 BYTE   N03
 BYTE   W06
 BYTE   N05  Gn3
 BYTE   W09
 BYTE   N05
 BYTE   W09
 BYTE   N05
 BYTE   W09
 BYTE   N05
 BYTE   W09
 BYTE   N03
 BYTE   W06
 BYTE   N03
 BYTE   W05
 BYTE   N44  Dn3
 BYTE   W01
// 004   ----------------------------------------
 BYTE   W44
 BYTE   W03
 BYTE   N44
 BYTE   W48
 BYTE   N44
 BYTE   W01
// 005   ----------------------------------------
 BYTE   W44
 BYTE   W03
 BYTE   N44
 BYTE   W48
 BYTE   W01
// 006   ----------------------------------------
 BYTE   GoTo
  POIN2 Label_6_01082C66
 BYTE   PATT
  POIN2 Label_6_01082CA3
 BYTE   PATT
  POIN2 Label_6_01082C87
 BYTE   PATT
  POIN2 Label_6_01082CA3
 BYTE   PATT
  POIN2 Label_6_01082C87
// 007   ----------------------------------------
 BYTE   N44  Dn3  v104
 BYTE   W48
 BYTE   N44
 BYTE   W48
// 008   ----------------------------------------
 BYTE   N44
 BYTE   W48
 BYTE   N44
 BYTE   W44
 BYTE   W03
 BYTE   FINE

//**************** Track 8 (Midi-Chn.7) ****************//

CombatMission_008:
// 000   ----------------------------------------
 BYTE   KEYSH   CombatMission_key+0
Label_7_01082D0E:
 BYTE   VOL   85*CombatMission_mvl/mxv
 BYTE   W96
// 001   ----------------------------------------
 BYTE   W96
// 002   ----------------------------------------
 BYTE   W96
// 003   ----------------------------------------
 BYTE   W96
// 004   ----------------------------------------
Label_7_01082D14:
 BYTE   VOICE   109
 BYTE   VOL   55*CombatMission_mvl/mxv
 BYTE   PAN   c_v+43
 BYTE   N44  Dn1  v108
 BYTE   W48
 BYTE   N44
 BYTE   W48
 BYTE   PEND 
// 005   ----------------------------------------
 BYTE   N44
 BYTE   W48
 BYTE   N44
 BYTE   W48
// 006   ----------------------------------------
 BYTE   GoTo
  POIN2 Label_7_01082D0E
// 007   ----------------------------------------
 BYTE   VOL   85*CombatMission_mvl/mxv
 BYTE   W96
// 008   ----------------------------------------
 BYTE   W96
// 009   ----------------------------------------
 BYTE   W96
// 010   ----------------------------------------
 BYTE   W96
 BYTE   PATT
  POIN2 Label_7_01082D14
// 011   ----------------------------------------
 BYTE   N44  Dn1  v108
 BYTE   W48
 BYTE   N44
 BYTE   W44
 BYTE   W03
 BYTE   FINE

//**************** Track 9 (Midi-Chn.8) ****************//

CombatMission_009:
// 000   ----------------------------------------
 BYTE   VOL   92*CombatMission_mvl/mxv
 BYTE   KEYSH   CombatMission_key+0
Label_8_01082D44:
 BYTE   VOICE   108
 BYTE   N05  Cn0  v120
 BYTE   W06
 BYTE   N02  Cn0  v076
 BYTE   W03
 BYTE   N05  Cn0  v108
 BYTE   W06
 BYTE   N02  Cn0  v076
 BYTE   W03
 BYTE   N05  Cn0  v108
 BYTE   W06
 BYTE   N02  Cn0  v076
 BYTE   W03
 BYTE   N05  Cn0  v108
 BYTE   W06
 BYTE   N02  Cn0  v104
 BYTE   W03
 BYTE   N05  Cn0  v112
 BYTE   W06
 BYTE   N02  Cn0  v104
 BYTE   W03
 BYTE   Cn0  v072
 BYTE   W03
 BYTE   N05  Cn0  v120
 BYTE   W06
 BYTE   N02  Cn0  v076
 BYTE   W03
 BYTE   N05  Cn0  v108
 BYTE   W06
 BYTE   N02  Cn0  v076
 BYTE   W03
 BYTE   N05  Cn0  v108
 BYTE   W06
 BYTE   N02  Cn0  v076
 BYTE   W03
 BYTE   N05  Cn0  v108
 BYTE   W06
 BYTE   N02  Cn0  v104
 BYTE   W03
 BYTE   N05  Cn0  v112
 BYTE   W06
 BYTE   N01  Cs0  v076
 BYTE   W02
 BYTE   Cs0  v072
 BYTE   W02
 BYTE   N01
 BYTE   W02
// 001   ----------------------------------------
Label_8_01082D9E:
 BYTE   N05  Cn0  v120
 BYTE   W06
 BYTE   N02  Cn0  v076
 BYTE   W03
 BYTE   N05  Cn0  v108
 BYTE   W06
 BYTE   N02  Cn0  v076
 BYTE   W03
 BYTE   N05  Cn0  v108
 BYTE   W06
 BYTE   N02  Cn0  v076
 BYTE   W03
 BYTE   N05  Cn0  v108
 BYTE   W06
 BYTE   N02  Cn0  v104
 BYTE   W03
 BYTE   N05  Cn0  v112
 BYTE   W06
 BYTE   N02  Cn0  v104
 BYTE   W03
 BYTE   Cn0  v072
 BYTE   W03
 BYTE   N05  Cn0  v120
 BYTE   W06
 BYTE   N02  Cn0  v076
 BYTE   W03
 BYTE   N05  Cn0  v108
 BYTE   W06
 BYTE   N02  Cn0  v076
 BYTE   W03
 BYTE   N05  Cn0  v108
 BYTE   W06
 BYTE   N02  Cn0  v076
 BYTE   W03
 BYTE   N05  Cn0  v108
 BYTE   W06
 BYTE   N02  Cn0  v104
 BYTE   W03
 BYTE   N05  Cn0  v112
 BYTE   W06
 BYTE   N01  Cs0  v076
 BYTE   W02
 BYTE   Cs0  v072
 BYTE   W02
 BYTE   N01
 BYTE   W02
 BYTE   PEND 
 BYTE   PATT
  POIN2 Label_8_01082D9E
// 002   ----------------------------------------
Label_8_01082DFC:
 BYTE   N05  Cn0  v120
 BYTE   W06
 BYTE   N02  Cn0  v076
 BYTE   W03
 BYTE   N05  Cn0  v108
 BYTE   W06
 BYTE   N02  Cn0  v076
 BYTE   W03
 BYTE   N05  Cn0  v108
 BYTE   W06
 BYTE   N02  Cn0  v076
 BYTE   W03
 BYTE   N05  Cn0  v108
 BYTE   W06
 BYTE   N02  Cn0  v104
 BYTE   W03
 BYTE   N05  Cn0  v112
 BYTE   W06
 BYTE   N02  Cn0  v104
 BYTE   W03
 BYTE   Cn0  v072
 BYTE   W03
 BYTE   N05  Cn0  v120
 BYTE   W06
 BYTE   N02  Cn0  v076
 BYTE   W03
 BYTE   N05  Cn0  v108
 BYTE   W06
 BYTE   N02  Cn0  v076
 BYTE   W03
 BYTE   N05  Cn0  v108
 BYTE   W06
 BYTE   N02  Cn0  v076
 BYTE   W03
 BYTE   N05  Cn0  v112
 BYTE   W06
 BYTE   N02  Cn0  v092
 BYTE   W03
 BYTE   N01  Cn0  v112
 BYTE   W02
 BYTE   Cn0  v096
 BYTE   W02
 BYTE   Cn0  v092
 BYTE   W02
 BYTE   Cn0  v084
 BYTE   W02
 BYTE   Cn0  v076
 BYTE   W02
 BYTE   N01
 BYTE   W02
 BYTE   PEND 
// 003   ----------------------------------------
 BYTE   W96
// 004   ----------------------------------------
 BYTE   W96
// 005   ----------------------------------------
 BYTE   GoTo
  POIN2 Label_8_01082D44
 BYTE   PATT
  POIN2 Label_8_01082D9E
 BYTE   PATT
  POIN2 Label_8_01082D9E
 BYTE   PATT
  POIN2 Label_8_01082D9E
 BYTE   PATT
  POIN2 Label_8_01082DFC
// 006   ----------------------------------------
 BYTE   W96
// 007   ----------------------------------------
 BYTE   W92
 BYTE   W03
 BYTE   FINE

//******************************************************//
	ALIGN 4

CombatMission:
	BYTE	9	// NumTrks
	BYTE	0	// NumBlks
	BYTE	CombatMission_pri	// Priority
	BYTE	CombatMission_rev	// Reverb.
    
	POIN2	CombatMission_grp
    
	POIN2	CombatMission_001
	POIN2	CombatMission_002
	POIN2	CombatMission_003
	POIN2	CombatMission_004
	POIN2	CombatMission_005
	POIN2	CombatMission_006
	POIN2	CombatMission_007
	POIN2	CombatMission_008
	POIN2	CombatMission_009

	
